{"accessors" : [{"bufferView" : 0, "byteOffset" : 0, "componentType" : 5123, "count" : 132, "type" : "SCALAR", "max" : [128], "min" : [0]}, {"bufferView" : 1, "byteOffset" : 0, "componentType" : 5126, "count" : 129, "type" : "VEC3", "max" : [0.4300000071525574, 0.39000001549720764, -0.07999999821186066], "min" : [0.20000000298023224, 0, -0.20999999344348907], "name" : "POSITION"}, {"bufferView" : 1, "byteOffset" : 12, "componentType" : 5126, "count" : 129, "type" : "VEC3", "max" : [1.0000044107437134, 1.0000044107437134, 1.0000044107437134], "min" : [-1.0000044107437134, -1.0000044107437134, -1.0000044107437134], "name" : "NORMAL"}, {"bufferView" : 1, "byteOffset" : 24, "componentType" : 5126, "count" : 129, "type" : "VEC2", "max" : [16.929134368896484, 1], "min" : [-16.929134368896484, -14.354331016540527], "name" : "TEXCOORD_0"}, {"bufferView" : 0, "byteOffset" : 264, "componentType" : 5123, "count" : 30, "type" : "SCALAR", "max" : [29], "min" : [0]}, {"bufferView" : 2, "byteOffset" : 0, "componentType" : 5126, "count" : 30, "type" : "VEC3", "max" : [0.17631162703037262, 0.3363116383552551, 0.009999999776482582], "min" : [0, 0, -0.009999999776482582], "name" : "POSITION"}, {"bufferView" : 2, "byteOffset" : 12, "componentType" : 5126, "count" : 30, "type" : "VEC3", "max" : [1.0000044107437134, 1.0000044107437134, -0], "min" : [-1.0000044107437134, -1.0000044107437134, -1.0000044107437134], "name" : "NORMAL"}, {"bufferView" : 2, "byteOffset" : 24, "componentType" : 5126, "count" : 30, "type" : "VEC2", "max" : [6.941402912139893, 1.3937008380889893], "min" : [-6.941402912139893, -12.240615844726562], "name" : "TEXCOORD_0"}, {"bufferView" : 0, "byteOffset" : 324, "componentType" : 5123, "count" : 24, "type" : "SCALAR", "max" : [21], "min" : [0]}, {"bufferView" : 3, "byteOffset" : 0, "componentType" : 5126, "count" : 22, "type" : "VEC3", "max" : [0.17631162703037262, 0.3363116383552551, 0.009999999776482582], "min" : [0, 0, 0.009999999776482582], "name" : "POSITION"}, {"bufferView" : 3, "byteOffset" : 12, "componentType" : 5126, "count" : 22, "type" : "VEC3", "max" : [0, 0, 1.0000044107437134], "min" : [0, 0, 1.0000044107437134], "name" : "NORMAL"}, {"bufferView" : 3, "byteOffset" : 24, "componentType" : 5126, "count" : 22, "type" : "VEC2", "max" : [6.941402912139893, 1], "min" : [0, -12.240615844726562], "name" : "TEXCOORD_0"}, {"bufferView" : 0, "byteOffset" : 372, "componentType" : 5123, "count" : 6, "type" : "SCALAR", "max" : [5], "min" : [0]}, {"bufferView" : 4, "byteOffset" : 0, "componentType" : 5126, "count" : 6, "type" : "VEC3", "max" : [0.15596970915794373, 0.31596967577934265, 0.009999999776482582], "min" : [0.020341932773590088, 0.020341932773590088, 0.009999999776482582], "name" : "POSITION"}, {"bufferView" : 4, "byteOffset" : 12, "componentType" : 5126, "count" : 6, "type" : "VEC3", "max" : [0, 0, 1.0000044107437134], "min" : [0, 0, 1.0000044107437134], "name" : "NORMAL"}, {"bufferView" : 4, "byteOffset" : 24, "componentType" : 5126, "count" : 6, "type" : "VEC2", "max" : [6.140539646148682, 0.19913649559020996], "min" : [0.80086350440979, -11.439751625061035], "name" : "TEXCOORD_0"}], "asset" : {"generator" : "Aspose.3D 21.11", "version" : "2.0"}, "buffers" : [{"uri" : "data:application/octet-stream;base64,", "byteLength" : 6548}], "bufferViews" : [{"buffer" : 0, "byteOffset" : 0, "byteLength" : 384, "target" : 34963}, {"buffer" : 0, "byteOffset" : 388, "byteLength" : 4224, "byteStride" : 32, "target" : 34962}, {"buffer" : 0, "byteOffset" : 4616, "byteLength" : 960, "byteStride" : 32, "target" : 34962}, {"buffer" : 0, "byteOffset" : 5580, "byteLength" : 768, "byteStride" : 32, "target" : 34962}, {"buffer" : 0, "byteOffset" : 6352, "byteLength" : 192, "byteStride" : 32, "target" : 34962}], "materials" : [{"name" : "wood", "pbrMetallicRoughness" : {"baseColorFactor" : [0.8962264, 0.6015712, 0.3931559, 1], "metallicFactor" : 0, "roughnessFactor" : 1}, "emissiveFactor" : [0, 0, 0], "alphaMode" : "OPAQUE", "doubleSided" : false}, {"name" : "wood", "pbrMetallicRoughness" : {"baseColorFactor" : [0.8962264, 0.6015712, 0.3931559, 1], "metallicFactor" : 0, "roughnessFactor" : 1}, "emissiveFactor" : [0, 0, 0], "alphaMode" : "OPAQUE", "doubleSided" : false}, {"name" : "woodDark", "pbrMetallicRoughness" : {"baseColorFactor" : [0.678000033, 0.455947667, 0.2990306, 1], "metallicFactor" : 0, "roughnessFactor" : 1}, "emissiveFactor" : [0, 0, 0], "alphaMode" : "OPAQUE", "doubleSided" : false}, {"name" : "metal", "pbrMetallicRoughness" : {"baseColorFactor" : [0.74061054, 0.822866738, 0.8396226, 1], "metallicFactor" : 0, "roughnessFactor" : 1}, "emissiveFactor" : [0, 0, 0], "alphaMode" : "OPAQUE", "doubleSided" : false}], "meshes" : [{"primitives" : [{"attributes" : {"POSITION" : 1, "NORMAL" : 2, "TEXCOORD_0" : 3}, "indices" : 0, "material" : 0, "mode" : 4}]}, {"primitives" : [{"attributes" : {"POSITION" : 5, "NORMAL" : 6, "TEXCOORD_0" : 7}, "indices" : 4, "material" : 1, "mode" : 4}, {"attributes" : {"POSITION" : 9, "NORMAL" : 10, "TEXCOORD_0" : 11}, "indices" : 8, "material" : 2, "mode" : 4}, {"attributes" : {"POSITION" : 13, "NORMAL" : 14, "TEXCOORD_0" : 15}, "indices" : 12, "material" : 3, "mode" : 4}]}], "nodes" : [{"matrix" : [1, 0, 0, 0, 0, 1, 0, 0, 0, 0, 1, 0, 0.226844177, 0.026844183, -0.0899999961, 1], "mesh" : 1, "name" : "door"}, {"children" : [0], "mesh" : 0, "name" : "bathroomCabinet(Clone)"}], "scene" : 0, "scenes" : [{"nodes" : [1]}]}