{"accessors" : [{"bufferView" : 0, "byteOffset" : 0, "componentType" : 5123, "count" : 1476, "type" : "SCALAR", "max" : [1229], "min" : [0]}, {"bufferView" : 1, "byteOffset" : 0, "componentType" : 5126, "count" : 1230, "type" : "VEC3", "max" : [3125.2509765625, 1342.68786621094, 2112.62573242188], "min" : [2999.54223632813, 622.869384765625, -1643.93603515625], "name" : "POSITION"}, {"bufferView" : 1, "byteOffset" : 12, "componentType" : 5126, "count" : 1230, "type" : "VEC2", "max" : [1, 0], "min" : [0, -1], "name" : "TEXCOORD_0"}, {"bufferView" : 0, "byteOffset" : 2952, "componentType" : 5123, "count" : 1476, "type" : "SCALAR", "max" : [1229], "min" : [0]}, {"bufferView" : 2, "byteOffset" : 0, "componentType" : 5126, "count" : 1230, "type" : "VEC3", "max" : [3173.04516601563, 2115.34716796875, 2185.29174804688], "min" : [2978.19409179688, 6.00702285766602, 1991.29370117188], "name" : "POSITION"}, {"bufferView" : 2, "byteOffset" : 12, "componentType" : 5126, "count" : 1230, "type" : "VEC2", "max" : [1, 0], "min" : [0, -1], "name" : "TEXCOORD_0"}, {"bufferView" : 0, "byteOffset" : 5904, "componentType" : 5123, "count" : 1476, "type" : "SCALAR", "max" : [1229], "min" : [0]}, {"bufferView" : 3, "byteOffset" : 0, "componentType" : 5126, "count" : 1230, "type" : "VEC3", "max" : [3173.04516601563, 2115.34716796875, -1468.14343261719], "min" : [2978.19409179688, 6.00702285766602, -1662.14147949219], "name" : "POSITION"}, {"bufferView" : 3, "byteOffset" : 12, "componentType" : 5126, "count" : 1230, "type" : "VEC2", "max" : [1, 0], "min" : [0, -1], "name" : "TEXCOORD_0"}, {"bufferView" : 0, "byteOffset" : 8856, "componentType" : 5123, "count" : 6888, "type" : "SCALAR", "max" : [5738], "min" : [0]}, {"bufferView" : 4, "byteOffset" : 0, "componentType" : 5126, "count" : 5739, "type" : "VEC3", "max" : [3126.43872070313, 2052.0810546875, 2161.92724609375], "min" : [2997.77221679688, 1433.88830566406, -1576.84692382813], "name" : "POSITION"}, {"bufferView" : 4, "byteOffset" : 12, "componentType" : 5126, "count" : 5739, "type" : "VEC2", "max" : [1, 0], "min" : [0, -1], "name" : "TEXCOORD_0"}, {"bufferView" : 0, "byteOffset" : 22632, "componentType" : 5123, "count" : 1476, "type" : "SCALAR", "max" : [1229], "min" : [0]}, {"bufferView" : 5, "byteOffset" : 0, "componentType" : 5126, "count" : 1230, "type" : "VEC3", "max" : [-2814.58374023438, 1342.68786621094, 2112.62573242188], "min" : [-2940.29248046875, 622.869384765625, -1643.93603515625], "name" : "POSITION"}, {"bufferView" : 5, "byteOffset" : 12, "componentType" : 5126, "count" : 1230, "type" : "VEC2", "max" : [1, 0], "min" : [0, -1], "name" : "TEXCOORD_0"}, {"bufferView" : 0, "byteOffset" : 25584, "componentType" : 5123, "count" : 1476, "type" : "SCALAR", "max" : [1229], "min" : [0]}, {"bufferView" : 6, "byteOffset" : 0, "componentType" : 5126, "count" : 1230, "type" : "VEC3", "max" : [-2766.78955078125, 2115.34716796875, 2185.29174804688], "min" : [-2961.640625, 6.00702285766602, 1991.29370117188], "name" : "POSITION"}, {"bufferView" : 6, "byteOffset" : 12, "componentType" : 5126, "count" : 1230, "type" : "VEC2", "max" : [1, 0], "min" : [0, -1], "name" : "TEXCOORD_0"}, {"bufferView" : 0, "byteOffset" : 28536, "componentType" : 5123, "count" : 1476, "type" : "SCALAR", "max" : [1229], "min" : [0]}, {"bufferView" : 7, "byteOffset" : 0, "componentType" : 5126, "count" : 1230, "type" : "VEC3", "max" : [-2766.78955078125, 2115.34716796875, -1468.14343261719], "min" : [-2961.640625, 6.00702285766602, -1662.14147949219], "name" : "POSITION"}, {"bufferView" : 7, "byteOffset" : 12, "componentType" : 5126, "count" : 1230, "type" : "VEC2", "max" : [1, 0], "min" : [0, -1], "name" : "TEXCOORD_0"}, {"bufferView" : 0, "byteOffset" : 31488, "componentType" : 5123, "count" : 6888, "type" : "SCALAR", "max" : [5738], "min" : [0]}, {"bufferView" : 8, "byteOffset" : 0, "componentType" : 5126, "count" : 5739, "type" : "VEC3", "max" : [-2813.39599609375, 2064.77709960938, 2161.92724609375], "min" : [-2942.06274414063, 1446.58435058594, -1576.84692382813], "name" : "POSITION"}, {"bufferView" : 8, "byteOffset" : 12, "componentType" : 5126, "count" : 5739, "type" : "VEC2", "max" : [1, 0], "min" : [0, -1], "name" : "TEXCOORD_0"}, {"bufferView" : 0, "byteOffset" : 45264, "componentType" : 5123, "count" : 1476, "type" : "SCALAR", "max" : [1229], "min" : [0]}, {"bufferView" : 9, "byteOffset" : 0, "componentType" : 5126, "count" : 1230, "type" : "VEC3", "max" : [3005.16772460938, 1342.68786621094, -1501.19409179688], "min" : [-2853.58251953125, 622.869384765625, -1626.90283203125], "name" : "POSITION"}, {"bufferView" : 9, "byteOffset" : 12, "componentType" : 5126, "count" : 1230, "type" : "VEC2", "max" : [1, -0.767441987991333], "min" : [0, -1], "name" : "TEXCOORD_0"}, {"bufferView" : 0, "byteOffset" : 48216, "componentType" : 5123, "count" : 1476, "type" : "SCALAR", "max" : [1229], "min" : [0]}, {"bufferView" : 10, "byteOffset" : 0, "componentType" : 5126, "count" : 1230, "type" : "VEC3", "max" : [3005.16772460938, 1342.68786621094, 2154.91259765625], "min" : [-2853.58251953125, 622.869384765625, 2029.20373535156], "name" : "POSITION"}, {"bufferView" : 10, "byteOffset" : 12, "componentType" : 5126, "count" : 1230, "type" : "VEC2", "max" : [1, -0.767441987991333], "min" : [0, -1], "name" : "TEXCOORD_0"}, {"bufferView" : 0, "byteOffset" : 51168, "componentType" : 5123, "count" : 1476, "type" : "SCALAR", "max" : [1229], "min" : [0]}, {"bufferView" : 11, "byteOffset" : 0, "componentType" : 5126, "count" : 1230, "type" : "VEC3", "max" : [-2199.2099609375, 931.441589355469, 2082.79467773438], "min" : [-2642.42724609375, 805.732727050781, -1583.46374511719], "name" : "POSITION"}, {"bufferView" : 11, "byteOffset" : 12, "componentType" : 5126, "count" : 1230, "type" : "VEC2", "max" : [1, -0.767441987991333], "min" : [0, -1], "name" : "TEXCOORD_0"}, {"bufferView" : 0, "byteOffset" : 54120, "componentType" : 5123, "count" : 1476, "type" : "SCALAR", "max" : [1229], "min" : [0]}, {"bufferView" : 12, "byteOffset" : 0, "componentType" : 5126, "count" : 1230, "type" : "VEC3", "max" : [-1485.08422851563, 931.441589355469, 2082.79467773438], "min" : [-1928.30139160156, 805.732727050781, -1583.46374511719], "name" : "POSITION"}, {"bufferView" : 12, "byteOffset" : 12, "componentType" : 5126, "count" : 1230, "type" : "VEC2", "max" : [1, -0.767441987991333], "min" : [0, -1], "name" : "TEXCOORD_0"}, {"bufferView" : 0, "byteOffset" : 57072, "componentType" : 5123, "count" : 1476, "type" : "SCALAR", "max" : [1229], "min" : [0]}, {"bufferView" : 13, "byteOffset" : 0, "componentType" : 5126, "count" : 1230, "type" : "VEC3", "max" : [-727.167724609375, 931.441589355469, 2082.79467773438], "min" : [-1170.38488769531, 805.732727050781, -1583.46374511719], "name" : "POSITION"}, {"bufferView" : 13, "byteOffset" : 12, "componentType" : 5126, "count" : 1230, "type" : "VEC2", "max" : [1, -0.767441987991333], "min" : [0, -1], "name" : "TEXCOORD_0"}, {"bufferView" : 0, "byteOffset" : 60024, "componentType" : 5123, "count" : 1476, "type" : "SCALAR", "max" : [1229], "min" : [0]}, {"bufferView" : 14, "byteOffset" : 0, "componentType" : 5126, "count" : 1230, "type" : "VEC3", "max" : [-13.042010307312, 931.441589355469, 2082.79467773438], "min" : [-456.259185791016, 805.732727050781, -1583.46374511719], "name" : "POSITION"}, {"bufferView" : 14, "byteOffset" : 12, "componentType" : 5126, "count" : 1230, "type" : "VEC2", "max" : [1, -0.767441987991333], "min" : [0, -1], "name" : "TEXCOORD_0"}, {"bufferView" : 0, "byteOffset" : 62976, "componentType" : 5123, "count" : 1476, "type" : "SCALAR", "max" : [1229], "min" : [0]}, {"bufferView" : 15, "byteOffset" : 0, "componentType" : 5126, "count" : 1230, "type" : "VEC3", "max" : [706.742309570313, 931.441589355469, 2082.79467773438], "min" : [263.525146484375, 805.732727050781, -1583.46374511719], "name" : "POSITION"}, {"bufferView" : 15, "byteOffset" : 12, "componentType" : 5126, "count" : 1230, "type" : "VEC2", "max" : [1, -0.767441987991333], "min" : [0, -1], "name" : "TEXCOORD_0"}, {"bufferView" : 0, "byteOffset" : 65928, "componentType" : 5123, "count" : 1476, "type" : "SCALAR", "max" : [1229], "min" : [0]}, {"bufferView" : 16, "byteOffset" : 0, "componentType" : 5126, "count" : 1230, "type" : "VEC3", "max" : [1420.86804199219, 931.441589355469, 2082.79467773438], "min" : [977.65087890625, 805.732727050781, -1583.46374511719], "name" : "POSITION"}, {"bufferView" : 16, "byteOffset" : 12, "componentType" : 5126, "count" : 1230, "type" : "VEC2", "max" : [1, -0.767441987991333], "min" : [0, -1], "name" : "TEXCOORD_0"}, {"bufferView" : 0, "byteOffset" : 68880, "componentType" : 5123, "count" : 1476, "type" : "SCALAR", "max" : [1229], "min" : [0]}, {"bufferView" : 17, "byteOffset" : 0, "componentType" : 5126, "count" : 1230, "type" : "VEC3", "max" : [2178.78466796875, 931.441589355469, 2082.79467773438], "min" : [1735.5673828125, 805.732727050781, -1583.46374511719], "name" : "POSITION"}, {"bufferView" : 17, "byteOffset" : 12, "componentType" : 5126, "count" : 1230, "type" : "VEC2", "max" : [1, -0.767441987991333], "min" : [0, -1], "name" : "TEXCOORD_0"}, {"bufferView" : 0, "byteOffset" : 71832, "componentType" : 5123, "count" : 1476, "type" : "SCALAR", "max" : [1229], "min" : [0]}, {"bufferView" : 18, "byteOffset" : 0, "componentType" : 5126, "count" : 1230, "type" : "VEC3", "max" : [2892.91015625, 931.441589355469, 2082.79467773438], "min" : [2449.69311523438, 805.732727050781, -1583.46374511719], "name" : "POSITION"}, {"bufferView" : 18, "byteOffset" : 12, "componentType" : 5126, "count" : 1230, "type" : "VEC2", "max" : [1, -0.767441987991333], "min" : [0, -1], "name" : "TEXCOORD_0"}, {"bufferView" : 0, "byteOffset" : 74784, "componentType" : 5123, "count" : 1476, "type" : "SCALAR", "max" : [1229], "min" : [0]}, {"bufferView" : 19, "byteOffset" : 0, "componentType" : 5126, "count" : 1230, "type" : "VEC3", "max" : [2892.2978515625, 1657.08959960938, 2009.08239746094], "min" : [-2752.65844726563, 935.684692382813, -1490.51611328125], "name" : "POSITION"}, {"bufferView" : 19, "byteOffset" : 12, "componentType" : 5126, "count" : 1230, "type" : "VEC2", "max" : [1, -0.0196080002933741], "min" : [0, -1], "name" : "TEXCOORD_0"}], "asset" : {"generator" : "Aspose.3D 22.2", "version" : "2.0"}, "buffers" : [{"uri" : "buffer.bin", "byteLength" : 855176}], "bufferViews" : [{"buffer" : 0, "byteOffset" : 0, "byteLength" : 77736, "target" : 34963}, {"buffer" : 0, "byteOffset" : 77740, "byteLength" : 29520, "byteStride" : 20, "target" : 34962}, {"buffer" : 0, "byteOffset" : 107264, "byteLength" : 29520, "byteStride" : 20, "target" : 34962}, {"buffer" : 0, "byteOffset" : 136788, "byteLength" : 29520, "byteStride" : 20, "target" : 34962}, {"buffer" : 0, "byteOffset" : 166312, "byteLength" : 137760, "byteStride" : 20, "target" : 34962}, {"buffer" : 0, "byteOffset" : 304076, "byteLength" : 29520, "byteStride" : 20, "target" : 34962}, {"buffer" : 0, "byteOffset" : 333600, "byteLength" : 29520, "byteStride" : 20, "target" : 34962}, {"buffer" : 0, "byteOffset" : 363124, "byteLength" : 29520, "byteStride" : 20, "target" : 34962}, {"buffer" : 0, "byteOffset" : 392648, "byteLength" : 137760, "byteStride" : 20, "target" : 34962}, {"buffer" : 0, "byteOffset" : 530412, "byteLength" : 29520, "byteStride" : 20, "target" : 34962}, {"buffer" : 0, "byteOffset" : 559936, "byteLength" : 29520, "byteStride" : 20, "target" : 34962}, {"buffer" : 0, "byteOffset" : 589460, "byteLength" : 29520, "byteStride" : 20, "target" : 34962}, {"buffer" : 0, "byteOffset" : 618984, "byteLength" : 29520, "byteStride" : 20, "target" : 34962}, {"buffer" : 0, "byteOffset" : 648508, "byteLength" : 29520, "byteStride" : 20, "target" : 34962}, {"buffer" : 0, "byteOffset" : 678032, "byteLength" : 29520, "byteStride" : 20, "target" : 34962}, {"buffer" : 0, "byteOffset" : 707556, "byteLength" : 29520, "byteStride" : 20, "target" : 34962}, {"buffer" : 0, "byteOffset" : 737080, "byteLength" : 29520, "byteStride" : 20, "target" : 34962}, {"buffer" : 0, "byteOffset" : 766604, "byteLength" : 29520, "byteStride" : 20, "target" : 34962}, {"buffer" : 0, "byteOffset" : 796128, "byteLength" : 29520, "byteStride" : 20, "target" : 34962}, {"buffer" : 0, "byteOffset" : 825652, "byteLength" : 29520, "byteStride" : 20, "target" : 34962}], "meshes" : [{"primitives" : [{"attributes" : {"POSITION" : 1, "TEXCOORD_0" : 2}, "indices" : 0, "mode" : 4}], "name" : ""}, {"primitives" : [{"attributes" : {"POSITION" : 4, "TEXCOORD_0" : 5}, "indices" : 3, "mode" : 4}], "name" : ""}, {"primitives" : [{"attributes" : {"POSITION" : 7, "TEXCOORD_0" : 8}, "indices" : 6, "mode" : 4}], "name" : ""}, {"primitives" : [{"attributes" : {"POSITION" : 10, "TEXCOORD_0" : 11}, "indices" : 9, "mode" : 4}], "name" : ""}, {"primitives" : [{"attributes" : {"POSITION" : 13, "TEXCOORD_0" : 14}, "indices" : 12, "mode" : 4}], "name" : ""}, {"primitives" : [{"attributes" : {"POSITION" : 16, "TEXCOORD_0" : 17}, "indices" : 15, "mode" : 4}], "name" : ""}, {"primitives" : [{"attributes" : {"POSITION" : 19, "TEXCOORD_0" : 20}, "indices" : 18, "mode" : 4}], "name" : ""}, {"primitives" : [{"attributes" : {"POSITION" : 22, "TEXCOORD_0" : 23}, "indices" : 21, "mode" : 4}], "name" : ""}, {"primitives" : [{"attributes" : {"POSITION" : 25, "TEXCOORD_0" : 26}, "indices" : 24, "mode" : 4}], "name" : ""}, {"primitives" : [{"attributes" : {"POSITION" : 28, "TEXCOORD_0" : 29}, "indices" : 27, "mode" : 4}], "name" : ""}, {"primitives" : [{"attributes" : {"POSITION" : 31, "TEXCOORD_0" : 32}, "indices" : 30, "mode" : 4}], "name" : ""}, {"primitives" : [{"attributes" : {"POSITION" : 34, "TEXCOORD_0" : 35}, "indices" : 33, "mode" : 4}], "name" : ""}, {"primitives" : [{"attributes" : {"POSITION" : 37, "TEXCOORD_0" : 38}, "indices" : 36, "mode" : 4}], "name" : ""}, {"primitives" : [{"attributes" : {"POSITION" : 40, "TEXCOORD_0" : 41}, "indices" : 39, "mode" : 4}], "name" : ""}, {"primitives" : [{"attributes" : {"POSITION" : 43, "TEXCOORD_0" : 44}, "indices" : 42, "mode" : 4}], "name" : ""}, {"primitives" : [{"attributes" : {"POSITION" : 46, "TEXCOORD_0" : 47}, "indices" : 45, "mode" : 4}], "name" : ""}, {"primitives" : [{"attributes" : {"POSITION" : 49, "TEXCOORD_0" : 50}, "indices" : 48, "mode" : 4}], "name" : ""}, {"primitives" : [{"attributes" : {"POSITION" : 52, "TEXCOORD_0" : 53}, "indices" : 51, "mode" : 4}], "name" : ""}, {"primitives" : [{"attributes" : {"POSITION" : 55, "TEXCOORD_0" : 56}, "indices" : 54, "mode" : 4}], "name" : ""}], "nodes" : [{"mesh" : 0, "name" : "Bed _ Cube_21"}, {"mesh" : 1, "name" : "Bed _ Cube2"}, {"mesh" : 2, "name" : "Bed _ Cube_11"}, {"mesh" : 3, "name" : "Bed _ Cube_3"}, {"mesh" : 4, "name" : "Bed _1 Cube_22"}, {"mesh" : 5, "name" : "Bed _1 Cube3"}, {"mesh" : 6, "name" : "Bed _1 Cube_12"}, {"mesh" : 7, "name" : "Bed _1 Cube_32"}, {"mesh" : 8, "name" : "Bed Side Cube"}, {"mesh" : 9, "name" : "Bed Side Cube_2"}, {"mesh" : 10, "name" : "Bed lath Cube1"}, {"mesh" : 11, "name" : "Bed lath Cube_1"}, {"mesh" : 12, "name" : "Bed lath Cube_23"}, {"mesh" : 13, "name" : "Bed lath Cube_31"}, {"mesh" : 14, "name" : "Bed lath Cube_4"}, {"mesh" : 15, "name" : "Bed lath Cube_5"}, {"mesh" : 16, "name" : "Bed lath Cube_6"}, {"mesh" : 17, "name" : "Bed lath Cube_7"}, {"mesh" : 18, "name" : "Bed mattress"}], "scene" : 0, "scenes" : [{"nodes" : [0, 1, 2, 3, 4, 5, 6, 7, 8, 9, 10, 11, 12, 13, 14, 15, 16, 17, 18]}]}